<?xml version="1.0" encoding="UTF-8"?>
<svg width="33px" height="41px" viewBox="0 0 33 41" version="1.1" xmlns="http://www.w3.org/2000/svg" xmlns:xlink="http://www.w3.org/1999/xlink">
    <!-- Generator: Sketch 50 (54983) - http://www.bohemiancoding.com/sketch -->
    <title>Coins</title>
    <desc>Created with Sketch.</desc>
    <defs></defs>
    <g id="Page-1" stroke="none" stroke-width="1" fill="none" fill-rule="evenodd" opacity="0.590736607">
        <g id="V4---GoodDollar-Mockup-Copy-3" transform="translate(-250.000000, -103.000000)" fill="#000000" fill-rule="nonzero">
            <g id="Coins" transform="translate(250.000000, 103.500000)">
                <path d="M22.8426859,20.6305521 L21.9289785,20.2939231 C22.0251582,20.1015636 22.0251582,19.8611143 22.0251582,19.6687548 C22.0251582,18.6107778 21.0152711,17.5528008 19.2840359,16.7833629 L19.6687548,15.9177454 C21.7847089,16.8795427 22.9388657,18.2260589 22.9388657,19.6687548 C23.0350454,20.0053839 22.9388657,20.2939231 22.8426859,20.6305521 Z" id="Shape"></path>
                <path d="M13.0323535,24.7181907 C13.0323535,24.7181907 13.0323535,24.7181907 13.0323535,24.7181907 C8.22336694,24.7181907 4.18381827,23.0831353 3.22202096,20.7748217 L4.08763854,20.3901028 C4.90516625,22.3136974 8.70426559,23.7563934 12.9842636,23.7563934 C12.9842636,23.7563934 12.9842636,23.7563934 13.0323535,23.7563934 C14.2826899,23.7563934 15.4849366,23.6121238 16.6871832,23.3716745 L16.8795427,24.3334718 C15.6292062,24.5739211 14.3307798,24.7181907 13.0323535,24.7181907 Z" id="Shape"></path>
                <path d="M13.0804433,28.6615596 C7.4539291,28.6615596 3.0296615,26.4494258 3.0296615,23.6121238 L3.0296615,20.1015636 L3.99145881,20.1015636 L3.99145881,23.6121238 C3.99145881,25.8242576 8.12718721,27.6997623 13.0323535,27.6997623 C14.2826899,27.6997623 15.5330264,27.6035826 16.7352731,27.3150434 L16.9276325,28.2768407 C15.6292062,28.51729 14.3307798,28.6615596 13.0804433,28.6615596 Z" id="Shape"></path>
                <path d="M13.1285332,32.2682995 C13.0804433,32.2682995 13.0323535,32.2682995 13.0323535,32.2682995 C7.4539291,32.2682995 3.0296615,30.0561657 3.0296615,27.2188637 L3.0296615,23.7083035 L3.99145881,23.7083035 L3.99145881,27.2188637 C3.99145881,29.4309975 8.12718721,31.3065022 13.0323535,31.3065022 C14.619319,31.3065022 16.2543744,31.1141428 17.7932501,30.681334 L18.0336994,31.5950414 C16.4467339,32.0278502 14.8116785,32.2682995 13.1285332,32.2682995 Z" id="Shape"></path>
                <path d="M13.3208926,35.9231293 C13.2247129,35.9231293 13.1285332,35.9231293 12.9842636,35.9231293 C7.40583923,35.9231293 2.98157164,33.7109955 2.98157164,30.8736934 L2.98157164,27.3631333 L3.94336894,27.3631333 L3.94336894,30.8736934 C3.94336894,33.0858272 8.07909734,34.961332 12.9842636,34.961332 C15.1963974,35.0094218 17.3604413,34.576613 19.3802157,33.7590853 L19.7649346,34.6247029 C17.6970704,35.4903205 15.5330264,35.9231293 13.3208926,35.9231293 Z" id="Shape"></path>
                <path d="M13.0323535,39.5298692 C7.40583923,39.5298692 3.0296615,37.3177354 3.0296615,34.4804333 L3.0296615,30.9698732 L3.99145881,30.9698732 L3.99145881,34.4804333 C3.99145881,36.6925671 8.12718721,38.5680718 13.0323535,38.5680718 C16.4948237,38.5680718 19.7168447,37.6062745 21.2076305,36.1635786 L21.8808886,36.8368367 C20.1977434,38.519982 16.7833629,39.5298692 13.0323535,39.5298692 Z" id="Shape"></path>
                <path d="M10.2431413,18.1298792 C4.76089665,18.1298792 0.432808786,15.9658352 0.432808786,13.1766231 C0.432808786,11.7339271 1.58696555,10.4355007 3.65482975,9.47370343 L4.03954867,10.339321 C2.35640339,11.1087588 1.39460609,12.118646 1.39460609,13.1766231 C1.39460609,15.340667 5.43415476,17.1680819 10.2431413,17.1680819 C15.0521278,17.1680819 19.0916765,15.340667 19.0916765,13.1766231 C19.0916765,12.8880839 19.0435866,12.6476345 18.899317,12.4071852 L19.7649346,11.9743764 C19.957294,12.3590953 20.0534738,12.7919041 20.0534738,13.1766231 C20.0534738,15.9658352 15.7734758,18.1298792 10.2431413,18.1298792 Z" id="Shape"></path>
                <path d="M10.2431413,22.0251582 C4.76089665,22.0251582 0.432808786,19.8611143 0.432808786,17.0719021 L0.432808786,13.1766231 L1.39460609,13.1766231 L1.39460609,17.0719021 C1.39460609,19.2359461 5.43415476,21.0633609 10.2431413,21.0633609 C15.0521278,21.0633609 19.0916765,19.2359461 19.0916765,17.0719021 L19.0916765,13.1766231 L20.0534738,13.1766231 L20.0534738,17.0719021 C20.0534738,19.8611143 15.7734758,22.0251582 10.2431413,22.0251582 Z" id="Shape"></path>
                <path d="M13.2247129,10.0988717 C7.69437842,10.0988717 3.41438043,7.93482775 3.41438043,5.14561557 C3.41438043,2.35640339 7.69437842,0.192359461 13.2247129,0.192359461 C18.7069575,0.192359461 23.0350454,2.35640339 23.0350454,5.14561557 C23.0350454,7.93482775 18.7069575,10.0988717 13.2247129,10.0988717 Z M13.2247129,1.15415676 C8.4157264,1.15415676 4.37617773,2.98157164 4.37617773,5.14561557 C4.37617773,7.3096595 8.4157264,9.13707438 13.2247129,9.13707438 C18.0336994,9.13707438 22.0732481,7.3096595 22.0732481,5.14561557 C22.0732481,2.98157164 17.9856096,1.15415676 13.2247129,1.15415676 Z" id="Shape"></path>
                <path d="M13.2247129,13.9460609 C7.69437842,13.9460609 3.41438043,11.782017 3.41438043,9.04089465 L3.41438043,5.14561557 L4.37617773,5.14561557 L4.37617773,9.04089465 C4.37617773,11.2049386 8.4157264,13.0323535 13.2247129,13.0323535 C18.0336994,13.0323535 22.0732481,11.2049386 22.0732481,9.04089465 L22.0732481,5.14561557 L23.0350454,5.14561557 L23.0350454,9.04089465 C23.0350454,11.782017 18.7069575,13.9460609 13.2247129,13.9460609 Z" id="Shape"></path>
                <path d="M29.5752671,37.6543644 C27.2188637,37.6543644 24.0930224,35.2017813 21.7847089,31.3065022 C18.9954967,26.5456056 18.7069575,21.736619 21.0633609,20.342013 C23.4678542,18.9474069 27.5074029,21.5442596 30.296615,26.3051562 C31.5950414,28.51729 32.4125691,30.8256036 32.5568387,32.8453779 C32.7491982,34.961332 32.1721198,36.5482975 30.9698732,37.2696455 C30.5851542,37.5100948 30.1042556,37.6543644 29.5752671,37.6543644 Z M21.5923495,21.1595407 C19.7168447,22.2656076 20.1977434,26.6898752 22.6503265,30.7775137 C25.0548197,34.9132421 28.7096495,37.4620049 30.5370644,36.4040279 C31.4026819,35.9231293 31.7874009,34.6247029 31.6431313,32.8934678 C31.4988617,31.017963 30.7294238,28.8539191 29.4790873,26.737965 C27.0745941,22.6503265 23.4678542,20.1015636 21.5923495,21.1595407 Z" id="Shape"></path>
                <path d="M26.2570664,39.577959 C23.900663,39.577959 20.7748217,37.1253759 18.4665082,33.2300968 C17.1680819,31.017963 16.3505542,28.7096495 16.2062846,26.6898752 C16.0139251,24.5739211 16.5910035,22.9869555 17.7932501,22.2656076 L21.1595407,20.2939231 L21.6404393,21.1114508 L18.2741488,23.0831353 C17.4085312,23.5640339 17.0238123,24.8624603 17.1680819,26.5936954 C17.3123515,28.4692002 18.0817893,30.6332441 19.3321258,32.7491982 C21.736619,36.8849266 25.3914488,39.4336894 27.2188637,38.3757124 L30.5851542,36.4040279 L31.0660529,37.2215556 L27.6997623,39.1932401 C27.2669535,39.4817793 26.737965,39.577959 26.2570664,39.577959 Z" id="Shape"></path>
            </g>
        </g>
    </g>
</svg>