<?xml version="1.0" encoding="UTF-8"?>
<svg width="28px" height="26px" viewBox="0 0 28 26" version="1.1" xmlns="http://www.w3.org/2000/svg" xmlns:xlink="http://www.w3.org/1999/xlink">
    <!-- Generator: Sketch 50 (54983) - http://www.bohemiancoding.com/sketch -->
    <title>update--dark</title>
    <desc>Created with Sketch.</desc>
    <defs></defs>
    <g id="Page-1" stroke="none" stroke-width="1" fill="none" fill-rule="evenodd">
        <g id="V4---GoodDollar-Mockup-Copy-4" transform="translate(-1118.000000, -442.000000)" fill="#092323" fill-rule="nonzero">
            <g id="update--dark" transform="translate(1117.990092, 442.532845)">
                <path d="M27.9679962,5.48364524 C27.9085817,5.42781298 27.8213623,5.40653039 27.7417527,5.42698379 L25.3584399,6.03726904 C22.9956149,2.30479985 18.8427442,0.081736336 14.2133866,0.081736336 C8.18412909,0.081736336 2.98872373,3.94273027 1.57916527,9.47067634 C1.55516531,9.56437503 1.54316534,9.66056129 1.54316534,9.75619475 C1.54316534,10.3197689 1.94882315,10.8056753 2.52950504,10.9377932 C2.62872437,10.9601814 2.73057785,10.9717901 2.83213865,10.9717901 C3.42891807,10.9717901 3.94316105,10.588427 4.08335592,10.0400548 C5.21311001,5.60885322 9.37885867,2.51403261 14.2133866,2.51403261 C17.6398195,2.51403261 20.8063505,4.07512458 22.7491763,6.70559772 L20.6436191,7.24484885 C20.5628387,7.26530226 20.499912,7.32528047 20.4785462,7.40156613 C20.4571804,7.47785178 20.480595,7.55911259 20.5400095,7.61466845 L25.7561953,12.5104939 C25.8003903,12.5519535 25.8598049,12.5746181 25.9209755,12.5746181 C25.9414633,12.5746181 25.9622437,12.5721305 25.9821461,12.5668789 C26.0629265,12.5464255 26.1258532,12.4864473 26.147219,12.4101617 L28.0291668,5.69674756 C28.0505327,5.6204619 28.0271181,5.53920109 27.9679962,5.48364524 Z" id="Shape-Copy"></path>
                <path d="M25.9119023,14.0972908 C25.8167805,14.076561 25.7193173,14.0660579 25.6227321,14.0660579 C25.019221,14.0660579 24.5038073,14.4543961 24.368588,15.0105075 C23.2760046,19.5003053 19.100012,22.6360327 14.2133866,22.6360327 C10.7869537,22.6360327 7.62042278,21.0752171 5.67788966,18.444744 L7.78344688,17.9054929 C7.86422723,17.8847631 7.92715394,17.8250612 7.94851976,17.7487756 C7.96988557,17.6724899 7.94647098,17.5909527 7.88734914,17.5353969 L2.67087064,12.6395714 C2.61145611,12.5840156 2.5251148,12.5621802 2.44462714,12.58291 C2.3638468,12.6036398 2.30092008,12.6633416 2.27955427,12.7396272 L0.397606405,19.4530414 C0.37624059,19.529327 0.399655182,19.6108642 0.458777028,19.6664201 C0.518191556,19.7222523 0.604532865,19.7435349 0.685020527,19.7230815 L3.06833335,19.1125199 C5.43145108,22.8455419 9.58402903,25.0686054 14.2133866,25.0686054 C20.3076197,25.0686054 25.515903,21.1564779 26.8783396,15.5550102 C26.9556078,15.2388117 26.897364,14.9132156 26.7144375,14.6376475 C26.5320963,14.361803 26.246731,14.1699833 25.9119023,14.0972908 Z" id="Shape-Copy-2"></path>
            </g>
        </g>
    </g>
</svg>