<?xml version="1.0" encoding="UTF-8"?>
<svg width="21px" height="20px" viewBox="0 0 21 20" version="1.1" xmlns="http://www.w3.org/2000/svg" xmlns:xlink="http://www.w3.org/1999/xlink">
    <!-- Generator: Sketch 50 (54983) - http://www.bohemiancoding.com/sketch -->
    <title>update--blue</title>
    <desc>Created with Sketch.</desc>
    <defs></defs>
    <g id="Page-1" stroke="none" stroke-width="1" fill="none" fill-rule="evenodd">
        <g id="V4---GoodDollar-Mockup-Copy-3" transform="translate(-481.000000, -753.000000)" fill="#25B2B4" fill-rule="nonzero">
            <g id="Group-16" transform="translate(250.000000, 646.500000)">
                <g id="Group-2" transform="translate(34.000000, 88.000000)">
                    <g id="Group-14" transform="translate(0.000000, 8.500000)">
                        <g id="update--blue" transform="translate(196.917178, 10.405774)">
                            <path d="M20.5539208,4.15667548 C20.509998,4.11540091 20.4455202,4.09966754 20.386668,4.11478792 L18.6247797,4.56594751 C16.8780373,1.80668164 13.8079853,0.163259288 10.3856856,0.163259288 C5.92849551,0.163259288 2.08773917,3.01753839 1.04570872,7.10412884 C1.0279665,7.17339655 1.0190954,7.24450322 1.0190954,7.31520124 C1.0190954,7.73182913 1.31898207,8.09104043 1.74825707,8.18870994 C1.82160597,8.20526064 1.89690219,8.21384248 1.97198205,8.21384248 C2.41315731,8.21384248 2.79331668,7.93043743 2.89695717,7.52504766 C3.73213938,4.24923675 6.81171152,1.96135909 10.3856856,1.96135909 C12.918711,1.96135909 15.2596013,3.11541223 16.695855,5.0600163 L15.1393004,5.45866319 C15.0795827,5.47378358 15.0330635,5.51812309 15.0172686,5.57451803 C15.0014737,5.63091298 15.0187832,5.69098586 15.062706,5.7320561 L18.9188245,9.35134493 C18.9514961,9.38199436 18.9954189,9.39874938 19.0406399,9.39874938 C19.0557857,9.39874938 19.0711479,9.39691041 19.0858609,9.39302815 C19.1455786,9.37790777 19.1920978,9.33356826 19.2078927,9.27717331 L20.5991418,4.31421354 C20.6149367,4.25781859 20.5976273,4.19774571 20.5539208,4.15667548 Z" id="Shape"></path>
                            <path d="M19.0339325,10.5244007 C18.9636127,10.509076 18.891562,10.5013115 18.8201605,10.5013115 C18.3740087,10.5013115 17.9929839,10.7883945 17.8930216,11.1995055 C17.0853182,14.5186342 13.9981732,16.8367527 10.3856856,16.8367527 C7.85266013,16.8367527 5.51176988,15.6829038 4.07573248,13.7382998 L5.6322871,13.3396529 C5.69200479,13.3243282 5.73852401,13.280193 5.75431891,13.223798 C5.7701138,13.1674031 5.75280433,13.1071259 5.7090979,13.0660556 L1.85276303,9.44676681 C1.80884024,9.40569658 1.74501154,9.38955455 1.68551022,9.40487926 C1.62579253,9.42020398 1.57927331,9.46433915 1.56347841,9.5207341 L0.172229286,14.4836939 C0.156434389,14.5400888 0.173743865,14.600366 0.217450292,14.6414363 C0.261373087,14.6827108 0.325201779,14.6984442 0.384703103,14.6833238 L2.14659139,14.2319599 C3.89355024,16.9916344 6.9633858,18.6350568 10.3856856,18.6350568 C14.8909094,18.6350568 18.741186,15.7429767 19.7483811,11.6020346 C19.8055024,11.3682816 19.7624451,11.1275815 19.6272148,10.9238649 C19.4924172,10.7199441 19.281458,10.5781394 19.0339325,10.5244007 Z" id="Shape"></path>
                        </g>
                    </g>
                </g>
            </g>
        </g>
    </g>
</svg>